<mxfile host="Electron" modified="2023-07-24T08:19:11.158Z" agent="Mozilla/5.0 (Windows NT 10.0; Win64; x64) AppleWebKit/537.36 (KHTML, like Gecko) draw.io/21.6.5 Chrome/114.0.5735.243 Electron/25.3.1 Safari/537.36" etag="ga21qeck8xM-CFtUTG3j" version="21.6.5" type="device">
  <diagram id="3228e29e-7158-1315-38df-8450db1d8a1d" name="Page-1">
    <mxGraphModel dx="3227" dy="2007" grid="1" gridSize="10" guides="1" tooltips="1" connect="1" arrows="1" fold="1" page="1" pageScale="1" pageWidth="1169" pageHeight="827" background="none" math="0" shadow="0">
      <root>
        <mxCell id="0" />
        <mxCell id="1" parent="0" />
        <mxCell id="21532" value="" style="ellipse;fillColor=#1ba1e2;opacity=60;strokeColor=#006EAF;html=1;fontColor=#ffffff;" parent="1" vertex="1">
          <mxGeometry x="440" y="100" width="600" height="600" as="geometry" />
        </mxCell>
        <mxCell id="21533" value="" style="ellipse;fillColor=#d80073;opacity=60;strokeColor=#A50040;html=1;fontColor=#ffffff;" parent="1" vertex="1">
          <mxGeometry x="690" y="100" width="600" height="600" as="geometry" />
        </mxCell>
        <mxCell id="21534" value="Development" style="text;fontSize=33;align=center;verticalAlign=middle;html=1;fontColor=#FFFFFF;fontStyle=1" parent="1" vertex="1">
          <mxGeometry x="480" y="350" width="150" height="59" as="geometry" />
        </mxCell>
        <mxCell id="21535" value="Operations" style="text;fontSize=33;align=center;verticalAlign=middle;html=1;fontColor=#000000;fontStyle=1" parent="1" vertex="1">
          <mxGeometry x="1080" y="344.5" width="190" height="70" as="geometry" />
        </mxCell>
        <mxCell id="KuldyLZH_bhRWh133fIH-21540" value="DevOps" style="text;fontSize=33;align=center;verticalAlign=middle;html=1;fontColor=#FFFFFF;fontStyle=1" parent="1" vertex="1">
          <mxGeometry x="690" y="280" width="190" height="70" as="geometry" />
        </mxCell>
        <mxCell id="KuldyLZH_bhRWh133fIH-21542" value="" style="outlineConnect=0;dashed=0;verticalLabelPosition=bottom;verticalAlign=top;align=center;html=1;shape=mxgraph.aws3.bank;fillColor=#d80073;fontColor=#ffffff;strokeColor=#A50040;" parent="1" vertex="1">
          <mxGeometry x="1360" y="365" width="149.5" height="149.5" as="geometry" />
        </mxCell>
        <mxCell id="KuldyLZH_bhRWh133fIH-21543" value="" style="outlineConnect=0;dashed=0;verticalLabelPosition=bottom;verticalAlign=top;align=center;html=1;shape=mxgraph.aws3.cart;fillColor=#1ba1e2;fontColor=#ffffff;strokeColor=#006EAF;" parent="1" vertex="1">
          <mxGeometry x="230" y="370" width="150.5" height="144.5" as="geometry" />
        </mxCell>
        <mxCell id="KuldyLZH_bhRWh133fIH-21545" value="Collaboration" style="text;fontSize=33;align=center;verticalAlign=middle;html=1;fontStyle=1;fillColor=#ffcd28;strokeColor=#d79b00;gradientColor=#ffa500;" parent="1" vertex="1">
          <mxGeometry x="150.5" y="210" width="230" height="70" as="geometry" />
        </mxCell>
        <mxCell id="KuldyLZH_bhRWh133fIH-21546" value="Automation" style="text;fontSize=33;align=center;verticalAlign=middle;html=1;fontColor=#ffffff;fontStyle=1;fillColor=#60a917;strokeColor=#2D7600;" parent="1" vertex="1">
          <mxGeometry x="740" y="-10" width="230" height="70" as="geometry" />
        </mxCell>
        <mxCell id="KuldyLZH_bhRWh133fIH-21547" value="Agility" style="text;fontSize=33;align=center;verticalAlign=middle;html=1;fontColor=#ffffff;fontStyle=1;fillColor=#6a00ff;strokeColor=#3700CC;" parent="1" vertex="1">
          <mxGeometry x="1050" y="730" width="170" height="70" as="geometry" />
        </mxCell>
        <mxCell id="KuldyLZH_bhRWh133fIH-21548" value="Feedback Loop" style="text;fontSize=33;align=center;verticalAlign=middle;html=1;fontColor=#000000;fontStyle=1;fillColor=#fa6800;strokeColor=#C73500;" parent="1" vertex="1">
          <mxGeometry x="1360" y="210" width="270" height="70" as="geometry" />
        </mxCell>
        <mxCell id="KuldyLZH_bhRWh133fIH-21549" value="Culture" style="text;fontSize=33;align=center;verticalAlign=middle;html=1;fontColor=#ffffff;fontStyle=1;fillColor=#a20025;strokeColor=#6F0000;" parent="1" vertex="1">
          <mxGeometry x="520" y="730" width="170" height="70" as="geometry" />
        </mxCell>
        <mxCell id="KuldyLZH_bhRWh133fIH-21550" value="DEVs &lt;span style=&quot;font-weight: normal;&quot;&gt;want to add more&lt;/span&gt; features" style="text;fontSize=29;align=center;verticalAlign=middle;html=1;fontStyle=1;fillColor=#b1ddf0;strokeColor=#10739e;" parent="1" vertex="1">
          <mxGeometry x="-89.5" y="530" width="470" height="70" as="geometry" />
        </mxCell>
        <mxCell id="KuldyLZH_bhRWh133fIH-21551" value="OPs &lt;span style=&quot;font-weight: normal;&quot;&gt;want to make them work&lt;/span&gt; perfectly" style="text;fontSize=29;align=center;verticalAlign=middle;html=1;fontColor=#ffffff;fontStyle=1;fillColor=#d80073;strokeColor=#A50040;" parent="1" vertex="1">
          <mxGeometry x="1360" y="530" width="560" height="70" as="geometry" />
        </mxCell>
        <mxCell id="dbE_PmgUFCAMRMusq5Vz-21536" value="" style="endArrow=none;html=1;rounded=0;exitX=0.293;exitY=0.957;exitDx=0;exitDy=0;exitPerimeter=0;strokeWidth=3;" parent="1" source="21533" edge="1">
          <mxGeometry width="50" height="50" relative="1" as="geometry">
            <mxPoint x="859.9999999999998" y="672.4999999999998" as="sourcePoint" />
            <mxPoint x="867" y="127.5" as="targetPoint" />
          </mxGeometry>
        </mxCell>
        <mxCell id="dbE_PmgUFCAMRMusq5Vz-21537" value="SRE" style="text;fontSize=33;align=center;verticalAlign=middle;html=1;fontColor=#000000;fontStyle=1" parent="1" vertex="1">
          <mxGeometry x="860" y="404.75" width="190" height="70" as="geometry" />
        </mxCell>
      </root>
    </mxGraphModel>
  </diagram>
</mxfile>
